HIERARCHY
ROOT hip
{
  OFFSET 0.332914 95.7809 -0.532548
  CHANNELS 6 Xposition Yposition Zposition Zrotation Xrotation Yrotation
  JOINT abdomen
  {
    OFFSET 0 7.2397 0
    CHANNELS 6 Xposition Yposition Zposition Zrotation Xrotation Yrotation
    JOINT chest
    {
      OFFSET 0 16.546 0
      CHANNELS 6 Xposition Yposition Zposition Zrotation Xrotation Yrotation
      JOINT neck
      {
        OFFSET 0 34.2149 0
        CHANNELS 6 Xposition Yposition Zposition Zrotation Xrotation Yrotation
        JOINT head
        {
          OFFSET 0 6.2923 0
          CHANNELS 6 Xposition Yposition Zposition Zrotation Xrotation Yrotation
          End Site
          {
            OFFSET 0 21.2161 0
          }
        }
      }
      JOINT lCollar
      {
        OFFSET 4.0639 26.6115 -1.1234
        CHANNELS 6 Xposition Yposition Zposition Zrotation Xrotation Yrotation
        JOINT lShldr
        {
          OFFSET 14.1772 0 0
          CHANNELS 6 Xposition Yposition Zposition Zrotation Xrotation Yrotation
          JOINT lForeArm
          {
            OFFSET 26.1234 0 0
            CHANNELS 6 Xposition Yposition Zposition Zrotation Xrotation Yrotation
            JOINT lHand
            {
              OFFSET 27.7188 0 0
              CHANNELS 6 Xposition Yposition Zposition Zrotation Xrotation Yrotation
              JOINT lThumb1
              {
                OFFSET 2.2979 -0.4685 1.8313
                CHANNELS 6 Xposition Yposition Zposition Zrotation Xrotation Yrotation
                JOINT lThumb2
                {
                  OFFSET 5.2953 0 0
                  CHANNELS 6 Xposition Yposition Zposition Zrotation Xrotation Yrotation
                  JOINT lThumb3
                  {
                    OFFSET 3.0181 0 0
                    CHANNELS 6 Xposition Yposition Zposition Zrotation Xrotation Yrotation
                    End Site
                    {
                      OFFSET 2.6294 0 0
                    }
                  }
                }
              }
              JOINT lIndex1
              {
                OFFSET 9.3793 0.2991 2.5924
                CHANNELS 6 Xposition Yposition Zposition Zrotation Xrotation Yrotation
                JOINT lIndex2
                {
                  OFFSET 4.3461 0 0
                  CHANNELS 6 Xposition Yposition Zposition Zrotation Xrotation Yrotation
                  JOINT lIndex3
                  {
                    OFFSET 2.1666 0 0
                    CHANNELS 6 Xposition Yposition Zposition Zrotation Xrotation Yrotation
                    End Site
                    {
                      OFFSET 2.2048 0 0
                    }
                  }
                }
              }
              JOINT lMid1
              {
                OFFSET 9.4769 0.8376 0.2947
                CHANNELS 6 Xposition Yposition Zposition Zrotation Xrotation Yrotation
                JOINT lMid2
                {
                  OFFSET 4.772 0 0
                  CHANNELS 6 Xposition Yposition Zposition Zrotation Xrotation Yrotation
                  JOINT lMid3
                  {
                    OFFSET 2.8722 0 0
                    CHANNELS 6 Xposition Yposition Zposition Zrotation Xrotation Yrotation
                    End Site
                    {
                      OFFSET 2.0959 0 0
                    }
                  }
                }
              }
              JOINT lRing1
              {
                OFFSET 8.6586 1.0176 -1.7016
                CHANNELS 6 Xposition Yposition Zposition Zrotation Xrotation Yrotation
                JOINT lRing2
                {
                  OFFSET 4.5461 0 0
                  CHANNELS 6 Xposition Yposition Zposition Zrotation Xrotation Yrotation
                  JOINT lRing3
                  {
                    OFFSET 2.506 0 0
                    CHANNELS 6 Xposition Yposition Zposition Zrotation Xrotation Yrotation
                    End Site
                    {
                      OFFSET 2.2023 0 0
                    }
                  }
                }
              }
              JOINT lPinky1
              {
                OFFSET 7.6901 0.6618 -3.9096
                CHANNELS 6 Xposition Yposition Zposition Zrotation Xrotation Yrotation
                JOINT lPinky2
                {
                  OFFSET 3.2119 0 0
                  CHANNELS 6 Xposition Yposition Zposition Zrotation Xrotation Yrotation
                  JOINT lPinky3
                  {
                    OFFSET 1.924 0 0
                    CHANNELS 6 Xposition Yposition Zposition Zrotation Xrotation Yrotation
                    End Site
                    {
                      OFFSET 1.7829 0 0
                    }
                  }
                }
              }
            }
          }
        }
      }
      JOINT rCollar
      {
        OFFSET -4.0677 26.6109 -1.1234
        CHANNELS 6 Xposition Yposition Zposition Zrotation Xrotation Yrotation
        JOINT rShldr
        {
          OFFSET -14.1772 0 0
          CHANNELS 6 Xposition Yposition Zposition Zrotation Xrotation Yrotation
          JOINT rForeArm
          {
            OFFSET -26.1234 0 0
            CHANNELS 6 Xposition Yposition Zposition Zrotation Xrotation Yrotation
            JOINT rHand
            {
              OFFSET -27.7188 0 0
              CHANNELS 6 Xposition Yposition Zposition Zrotation Xrotation Yrotation
              JOINT rThumb1
              {
                OFFSET -2.2979 -0.4684 1.8313
                CHANNELS 6 Xposition Yposition Zposition Zrotation Xrotation Yrotation
                JOINT rThumb2
                {
                  OFFSET -5.2953 0 0
                  CHANNELS 6 Xposition Yposition Zposition Zrotation Xrotation Yrotation
                  JOINT rThumb3
                  {
                    OFFSET -3.0181 0 0
                    CHANNELS 6 Xposition Yposition Zposition Zrotation Xrotation Yrotation
                    End Site
                    {
                      OFFSET -2.6294 0 0
                    }
                  }
                }
              }
              JOINT rIndex1
              {
                OFFSET -9.3793 0.2991 2.5924
                CHANNELS 6 Xposition Yposition Zposition Zrotation Xrotation Yrotation
                JOINT rIndex2
                {
                  OFFSET -4.3461 0 0
                  CHANNELS 6 Xposition Yposition Zposition Zrotation Xrotation Yrotation
                  JOINT rIndex3
                  {
                    OFFSET -2.1666 0 0
                    CHANNELS 6 Xposition Yposition Zposition Zrotation Xrotation Yrotation
                    End Site
                    {
                      OFFSET -2.2048 0 0
                    }
                  }
                }
              }
              JOINT rMid1
              {
                OFFSET -9.4769 0.8376 0.2947
                CHANNELS 6 Xposition Yposition Zposition Zrotation Xrotation Yrotation
                JOINT rMid2
                {
                  OFFSET -4.772 0 0
                  CHANNELS 6 Xposition Yposition Zposition Zrotation Xrotation Yrotation
                  JOINT rMid3
                  {
                    OFFSET -2.8722 0 0
                    CHANNELS 6 Xposition Yposition Zposition Zrotation Xrotation Yrotation
                    End Site
                    {
                      OFFSET -2.0959 0 0
                    }
                  }
                }
              }
              JOINT rRing1
              {
                OFFSET -8.6586 1.0176 -1.7016
                CHANNELS 6 Xposition Yposition Zposition Zrotation Xrotation Yrotation
                JOINT rRing2
                {
                  OFFSET -4.5461 0 0
                  CHANNELS 6 Xposition Yposition Zposition Zrotation Xrotation Yrotation
                  JOINT rRing3
                  {
                    OFFSET -2.506 0 0
                    CHANNELS 6 Xposition Yposition Zposition Zrotation Xrotation Yrotation
                    End Site
                    {
                      OFFSET -2.2023 0 0
                    }
                  }
                }
              }
              JOINT rPinky1
              {
                OFFSET -7.6901 0.6618 -3.9096
                CHANNELS 6 Xposition Yposition Zposition Zrotation Xrotation Yrotation
                JOINT rPinky2
                {
                  OFFSET -3.2119 0 0
                  CHANNELS 6 Xposition Yposition Zposition Zrotation Xrotation Yrotation
                  JOINT rPinky3
                  {
                    OFFSET -1.924 0 0
                    CHANNELS 6 Xposition Yposition Zposition Zrotation Xrotation Yrotation
                    End Site
                    {
                      OFFSET -1.7829 0 0
                    }
                  }
                }
              }
            }
          }
        }
      }
    }
  }
  JOINT lThigh
  {
    OFFSET 8.7379 -0.0029 0.0005
    CHANNELS 6 Xposition Yposition Zposition Zrotation Xrotation Yrotation
    JOINT lShin
    {
      OFFSET 0 -46.6676 0
      CHANNELS 6 Xposition Yposition Zposition Zrotation Xrotation Yrotation
      JOINT lFoot
      {
        OFFSET 0 -40.1476 0
        CHANNELS 6 Xposition Yposition Zposition Zrotation Xrotation Yrotation
        JOINT lToes
        {
          OFFSET 0 -8.8846 14.2294
          CHANNELS 6 Xposition Yposition Zposition Zrotation Xrotation Yrotation
          End Site
          {
            OFFSET 0 0 6.296
          }
        }
      }
    }
  }
  JOINT rThigh
  {
    OFFSET -8.7379 0.0029 -0.0005
    CHANNELS 6 Xposition Yposition Zposition Zrotation Xrotation Yrotation
    JOINT rShin
    {
      OFFSET 0 -46.6676 0
      CHANNELS 6 Xposition Yposition Zposition Zrotation Xrotation Yrotation
      JOINT rFoot
      {
        OFFSET 0 -40.1476 0
        CHANNELS 6 Xposition Yposition Zposition Zrotation Xrotation Yrotation
        JOINT rToes
        {
          OFFSET 0 -8.8846 14.2294
          CHANNELS 6 Xposition Yposition Zposition Zrotation Xrotation Yrotation
          End Site
          {
            OFFSET 0 0 6.296
          }
        }
      }
    }
  }
}
MOTION
Frames:	4
Frame Time:	0.0333333
-4.82164 93.0995 3.61736 -0.486048 -9.18651 -6.47874 -4.44089e-16 7.2397 0 0.716569 3.52979 -4.42857 -2.22045e-16 16.546 0 1.95472 8.85913 -9.11194 6.66134e-16 34.2149 8.88178e-16 -2.14357 25.2206 4.04519 -4.44089e-16 6.2923 1.42109e-14 -1.86198 -26.3519 16.364 4.0639 26.6115 -1.1234 -2.74382 -3.53284 4.19794 14.1772 2.84217e-14 0 -26.0609 50.1376 -56.6622 26.1234 1.42109e-14 -1.77636e-15 -0.514342 0.170471 -36.6725 27.7188 -1.42109e-14 0 1.00065 -52.1892 22.5548 2.2979 -0.4685 1.8313 63.2336 58.2019 -87.3034 5.2953 -1.42109e-14 3.55271e-15 -0.603502 5.9167 -1.43722 3.0181 0 3.55271e-15 15.8224 1.71458 0.884821 9.3793 0.2991 2.5924 -2.652 -1.259 -0.211481 4.3461 -3.55271e-15 0 -7.69626 0.159536 1.73969 2.1666 0 0 -6.0167 -0.0609358 0.851546 9.4769 0.8376 0.2947 -2.6468 -4.05551 -0.21519 4.772 -3.55271e-15 0 -7.61186 -0.0506064 2.11606 2.8722 -3.55271e-15 0 0.156609 0.108896 1.45153 8.6586 1.0176 -1.7016 -2.63757 2.64892 -0.211656 4.5461 -3.55271e-15 1.42109e-14 -7.78953 -0.082699 1.21307 2.506 0 0 2.86517 0.0510415 0.606056 7.6901 0.6618 -3.9096 -1.23353 -8.62988 3.83155 3.2119 3.55271e-15 0 -8.82161 0.364583 -1.07409 1.924 0 -1.42109e-14 0.712455 0.0608605 1.35978 -4.0677 26.6109 -1.1234 -3.71786 -0.926815 11.4022 -14.1772 -2.84217e-14 8.88178e-16 45.4902 30.5604 2.14656 -26.1234 0 7.10543e-15 0.814574 0.581886 71.0792 -27.7188 0 -7.10543e-15 2.44605 -38.5152 -29.9253 -2.2979 -0.4684 1.8313 -58.0133 63.1876 79.3945 -5.2953 1.42109e-14 -2.66454e-15 11.4333 2.03012 -2.84197 -3.0181 0 -3.55271e-15 -12.5496 0.262007 -2.61898 -9.3793 0.2991 2.5924 19.9946 -1.73652 -3.32941 -4.3461 3.55271e-15 -7.10543e-15 24.9938 -0.949185 -5.52609 -2.1666 3.55271e-15 0 14.6774 -0.408274 -2.75673 -9.4769 0.8376 0.2947 19.8318 -4.52827 -3.33831 -4.772 -3.55271e-15 0 24.652 -1.37692 -6.7071 -2.8722 7.10543e-15 0 8.40073 -0.0621251 -3.83 -8.6586 1.0176 -1.7016 20.2216 2.16483 -3.33026 -4.5461 -3.55271e-15 0 25.3174 -0.867244 -3.85942 -2.506 -3.55271e-15 0 5.90928 0.0147855 -1.98987 -7.6901 0.6618 -3.9096 19.5596 -9.13987 -3.37072 -3.2119 -1.77636e-15 7.10543e-15 23.9697 -1.83496 -8.62844 -1.924 -1.06581e-14 3.55271e-15 7.61832 -0.124081 -4.43273 8.7379 -0.0029 0.0005 12.8373 -14.2689 15.7603 1.77636e-15 -46.6676 0 0.848539 24.2759 9.49875 1.77636e-15 -40.1476 0 -1.28859 -0.641845 5.7999 1.77636e-15 -8.8846 14.2294 0.0001 -3.97569e-16 -0 -8.7379 0.0029 -0.0005 2.47354 -6.66251 -11.5551 4.44089e-16 -46.6676 0 -15.3968 33.418 8.62767 -1.77636e-15 -40.1476 2.22045e-15 5.69217 -19.2345 -7.09408 -1.77636e-15 -8.8846 14.2294 -1.36664e-16 2.48481e-17 -0 
-5.04192 93.1809 3.15175 -0.0536641 -8.7376 -4.56138 4.44089e-16 7.2397 0 0.671427 3.47667 -4.11332 1.11022e-15 16.546 0 1.45254 8.77524 -8.40371 3.33067e-16 34.2149 0 -2.01991 25.0746 3.70084 -8.88178e-16 6.2923 0 -1.50863 -26.7786 14.978 4.0639 26.6115 -1.1234 -3.37074 -3.57114 4.51599 14.1772 2.84217e-14 -4.44089e-16 -25.1131 51.5852 -55.7746 26.1234 0 0 -0.522134 0.17634 -37.3219 27.7188 1.42109e-14 0 3.58457 -51.723 25.6101 2.2979 -0.4685 1.8313 63.1381 58.3241 -87.1569 5.2953 1.42109e-14 -3.55271e-15 -0.66097 5.83849 -1.40939 3.0181 2.84217e-14 3.55271e-15 15.714 1.68789 0.936828 9.3793 0.2991 2.5924 -2.64042 -1.25904 -0.213861 4.3461 -3.55271e-15 0 -7.68371 0.159918 1.73685 2.1666 3.55271e-15 0 -6.01043 -0.0607942 0.850159 9.4769 0.8376 0.2947 -2.63535 -4.05555 -0.217572 4.772 3.55271e-15 0 -7.59946 -0.0501559 2.11262 2.8722 -3.55271e-15 -7.10543e-15 0.162828 0.108879 1.44982 8.6586 1.0176 -1.7016 -2.62584 2.64888 -0.214037 4.5461 0 -7.10543e-15 -7.77679 -0.0824108 1.21109 2.506 0 7.10543e-15 2.87151 0.0509866 0.605056 7.6901 0.6618 -3.9096 -1.22227 -8.62999 3.82916 3.2119 -1.77636e-15 7.10543e-15 -8.80954 0.364345 -1.07861 1.924 0 0 0.71849 0.0608296 1.35756 -4.0677 26.6109 -1.1234 -4.30826 -1.14838 10.8049 -14.1772 2.84217e-14 -1.77636e-15 50.1478 30.2228 -5.3855 -26.1234 1.42109e-14 0 0.80765 0.562444 69.7057 -27.7188 0 0 6.16137 -40.326 -24.447 -2.2979 -0.4684 1.8313 -58.6238 62.6895 80.2221 -5.2953 0 2.22045e-15 10.591 2.39252 -2.46809 -3.0181 0 8.88178e-16 -12.9796 0.381789 -2.41683 -9.3793 0.2991 2.5924 19.9946 -1.73653 -3.32941 -4.3461 3.55271e-15 0 24.9938 -0.94918 -5.52609 -2.1666 3.55271e-15 -3.55271e-15 14.6774 -0.408278 -2.75673 -9.4769 0.8376 0.2947 19.8318 -4.52827 -3.33831 -4.772 -1.77636e-15 0 24.652 -1.37692 -6.70709 -2.8722 1.42109e-14 3.55271e-15 8.40073 -0.0621256 -3.83001 -8.6586 1.0176 -1.7016 20.2216 2.16482 -3.33026 -4.5461 5.32907e-15 0 25.3174 -0.867244 -3.85942 -2.506 -7.10543e-15 0 5.90928 0.0147843 -1.98987 -7.6901 0.6618 -3.9096 19.5596 -9.13987 -3.37073 -3.2119 2.66454e-15 -7.10543e-15 23.9697 -1.83496 -8.62844 -1.924 0 0 7.61833 -0.124085 -4.43274 8.7379 -0.0029 0.0005 12.0322 -15.5108 16.3416 0 -46.6676 0 1.92469 30.0998 8.77003 0 -40.1476 -3.55271e-15 -2.28198 -3.88607 5.79524 0 -8.8846 14.2294 0.0001 -4.96962e-17 -9.54166e-15 -8.7379 0.0029 -0.0005 2.54471 -7.11152 -12.3072 4.44089e-16 -46.6676 0 -15.6536 32.9768 7.46467 0 -40.1476 -2.22045e-15 6.02004 -18.8042 -7.05542 0 -8.8846 14.2294 -9.93923e-17 2.48481e-17 -3.18055e-15 
-5.18514 93.2399 2.7538 0.193327 -8.18422 -3.14507 0 7.2397 0 0.620981 3.39185 -3.7177 4.44089e-16 16.546 0 0.955468 8.62479 -7.52934 -2.22045e-16 34.2149 -8.88178e-16 -1.87919 24.9679 3.40421 0 6.2923 0 -1.26486 -27.1178 13.8089 4.0639 26.6115 -1.1234 -3.86564 -3.63496 4.90412 14.1772 -2.84217e-14 6.66134e-16 -24.2526 53.111 -54.621 26.1234 0 0 -0.523245 0.177177 -37.4144 27.7188 0 -7.10543e-15 4.74008 -52.2044 25.3321 2.2979 -0.4685 1.8313 62.9488 58.5627 -86.868 5.2953 1.42109e-14 -7.10543e-15 -1.11545 5.68154 -1.18423 3.0181 0 0 15.4866 1.63153 1.04581 9.3793 0.2991 2.5924 -2.62878 -1.25908 -0.216234 4.3461 1.77636e-15 0 -7.67108 0.160294 1.73401 2.1666 3.55271e-15 0 -6.00412 -0.0606422 0.848758 9.4769 0.8376 0.2947 -2.62382 -4.0556 -0.219952 4.772 3.55271e-15 0 -7.58702 -0.0496892 2.10917 2.8722 0 0 0.169047 0.108884 1.44809 8.6586 1.0176 -1.7016 -2.61403 2.64883 -0.216419 4.5461 -3.55271e-15 0 -7.76402 -0.0821556 1.20911 2.506 0 7.10543e-15 2.87791 0.0509406 0.604063 7.6901 0.6618 -3.9096 -1.21095 -8.6301 3.82675 3.2119 0 0 -8.79741 0.36412 -1.08317 1.924 0 -7.10543e-15 0.724565 0.0608104 1.35533 -4.0677 26.6109 -1.1234 -4.84828 -1.32998 10.3286 -14.1772 0 -8.88178e-16 55.4369 29.6185 -12.6283 -26.1234 0 0 0.800748 0.544436 68.4232 -27.7188 0 7.10543e-15 9.98259 -42.7216 -20.0349 -2.2979 -0.4684 1.8313 -59.214 62.183 81.032 -5.2953 0 -7.10543e-15 9.73728 2.75311 -2.08486 -3.0181 0 1.77636e-15 -13.4144 0.501274 -2.21165 -9.3793 0.2991 2.5924 19.9946 -1.73653 -3.32941 -4.3461 -7.99361e-15 1.42109e-14 24.9938 -0.949184 -5.52609 -2.1666 0 -3.55271e-15 14.6774 -0.408276 -2.75673 -9.4769 0.8376 0.2947 19.8318 -4.52827 -3.33831 -4.772 2.33147e-15 3.55271e-15 24.652 -1.37692 -6.70709 -2.8722 0 0 8.40072 -0.0621247 -3.83001 -8.6586 1.0176 -1.7016 20.2216 2.16483 -3.33026 -4.5461 -3.55271e-15 0 25.3174 -0.867249 -3.85942 -2.506 1.42109e-14 0 5.90928 0.0147845 -1.98987 -7.6901 0.6618 -3.9096 19.5596 -9.13987 -3.37073 -3.2119 -5.32907e-15 3.55271e-15 23.9697 -1.83496 -8.62844 -1.924 0 0 7.61832 -0.124082 -4.43273 8.7379 -0.0029 0.0005 11.5014 -16.3079 17.4582 0 -46.6676 7.10543e-15 3.45714 35.2718 6.60758 -5.32907e-15 -40.1476 3.55271e-15 -3.69844 -6.41396 5.72676 -8.88178e-16 -8.8846 14.2294 0.0001 0 -0 -8.7379 0.0029 -0.0005 2.67136 -7.66965 -13.0427 -4.44089e-16 -46.6676 0 -15.9779 32.537 6.78195 3.55271e-15 -40.1476 -2.22045e-16 6.27442 -18.4047 -7.03822 3.55271e-15 -8.8846 14.2294 -9.93923e-17 -7.45443e-17 6.36111e-15 
-5.25027 93.2777 2.42655 0.342063 -7.5825 -2.17464 0 7.2397 0 0.491264 3.32081 -3.28419 8.88178e-16 16.546 0 0.407139 8.49953 -6.5767 -4.44089e-16 34.2149 0 -1.52823 24.7159 3.07292 0 6.2923 0 -1.08445 -27.1204 12.7495 4.0639 26.6115 -1.1234 -3.71026 -3.70923 5.19226 14.1772 2.84217e-14 4.44089e-16 -23.6931 54.8083 -53.3288 26.1234 0 -3.55271e-15 -0.518078 0.173259 -36.9824 27.7188 0 -7.10543e-15 3.60627 -53.0939 20.4833 2.2979 -0.4685 1.8313 62.6718 58.9029 -86.4488 5.2953 0 0 -1.77812 5.449 -0.857694 3.0181 0 7.10543e-15 15.1545 1.5484 1.2046 9.3793 0.2991 2.5924 -2.61714 -1.25913 -0.218635 4.3461 -1.77636e-15 0 -7.65842 0.16067 1.73117 2.1666 -7.10543e-15 0 -5.99776 -0.0604797 0.847376 9.4769 0.8376 0.2947 -2.61228 -4.05564 -0.222346 4.772 0 0 -7.57454 -0.0492267 2.10571 2.8722 0 -7.10543e-15 0.175306 0.108875 1.44636 8.6586 1.0176 -1.7016 -2.60222 2.64878 -0.218815 4.5461 0 1.42109e-14 -7.75119 -0.0818815 1.20714 2.506 7.10543e-15 0 2.88432 0.0508911 0.60306 7.6901 0.6618 -3.9096 -1.19959 -8.6302 3.82434 3.2119 0 0 -8.78522 0.3639 -1.08772 1.924 -1.77636e-15 0 0.730659 0.060785 1.35308 -4.0677 26.6109 -1.1234 -4.66061 -1.35327 9.89731 -14.1772 -2.84217e-14 1.77636e-15 60.9597 29.1615 -19.2575 -26.1234 -1.42109e-14 0 0.79353 0.526757 67.1524 -27.7188 1.42109e-14 -3.55271e-15 14.0023 -46.8805 -14.9774 -2.2979 -0.4684 1.8313 -59.7719 61.6795 81.807 -5.2953 -1.42109e-14 3.55271e-15 8.88783 3.10506 -1.69934 -3.0181 0 -5.32907e-15 -13.8461 0.618267 -2.00727 -9.3793 0.2991 2.5924 19.9947 -1.73653 -3.32941 -4.3461 -8.88178e-15 0 24.9938 -0.949185 -5.5261 -2.1666 -7.10543e-15 0 14.6774 -0.408275 -2.75673 -9.4769 0.8376 0.2947 19.8318 -4.52827 -3.33831 -4.772 -3.55271e-15 0 24.6521 -1.37692 -6.7071 -2.8722 0 0 8.40072 -0.0621266 -3.83001 -8.6586 1.0176 -1.7016 20.2216 2.16482 -3.33026 -4.5461 1.77636e-15 -3.55271e-15 25.3174 -0.867245 -3.85942 -2.506 0 0 5.90927 0.0147833 -1.98987 -7.6901 0.6618 -3.9096 19.5596 -9.13987 -3.37072 -3.2119 3.55271e-15 -3.55271e-15 23.9697 -1.83496 -8.62845 -1.924 0 -1.77636e-15 7.61832 -0.124084 -4.43273 8.7379 -0.0029 0.0005 11.0791 -16.42 18.1274 0 -46.6676 0 4.83369 38.9175 3.84587 -1.77636e-15 -40.1476 0 -5.2397 -7.67164 5.64267 3.55271e-15 -8.8846 14.2294 0.0001 0 3.18055e-15 -8.7379 0.0029 -0.0005 2.6927 -8.32071 -13.7461 0 -46.6676 0 -16.1934 32.2327 6.50336 0 -40.1476 6.66134e-16 6.38698 -18.111 -7.03197 -1.77636e-15 -8.8846 14.2294 -2.23633e-16 4.96962e-17 -3.18055e-15 
